<mxfile host="" modified="2020-07-02T07:34:44.267Z" agent="5.0 (Macintosh; Intel Mac OS X 10_15_4) AppleWebKit/537.36 (KHTML, like Gecko) Code/1.46.1 Chrome/78.0.3904.130 Electron/7.3.1 Safari/537.36" etag="JAFPGMVqqbGyRczWC4Uf" version="13.1.3">
    <diagram id="rZOU31GtYG_FSq2hGe2G" name="Page-1">
        <mxGraphModel dx="571" dy="313" grid="1" gridSize="10" guides="1" tooltips="1" connect="1" arrows="1" fold="1" page="1" pageScale="1" pageWidth="850" pageHeight="1100" math="0" shadow="0">
            <root>
                <mxCell id="0"/>
                <mxCell id="1" parent="0"/>
                <mxCell id="GPaO3mNPhnGk44heOKdt-1" value="" style="html=1;verticalLabelPosition=bottom;align=center;labelBackgroundColor=#ffffff;verticalAlign=top;strokeWidth=2;strokeColor=#0080F0;shadow=0;dashed=0;shape=mxgraph.ios7.icons.data;" parent="1" vertex="1">
                    <mxGeometry x="408" y="610" width="24" height="29.099999999999998" as="geometry"/>
                </mxCell>
                <mxCell id="GPaO3mNPhnGk44heOKdt-2" value="" style="html=1;verticalLabelPosition=bottom;align=center;labelBackgroundColor=#ffffff;verticalAlign=top;strokeWidth=2;strokeColor=#0080F0;shadow=0;dashed=0;shape=mxgraph.ios7.icons.data;" parent="1" vertex="1">
                    <mxGeometry x="550" y="580.9" width="24" height="29.099999999999998" as="geometry"/>
                </mxCell>
                <mxCell id="GPaO3mNPhnGk44heOKdt-3" value="" style="html=1;verticalLabelPosition=bottom;align=center;labelBackgroundColor=#ffffff;verticalAlign=top;strokeWidth=2;strokeColor=#0080F0;shadow=0;dashed=0;shape=mxgraph.ios7.icons.data;" parent="1" vertex="1">
                    <mxGeometry x="270" y="580.9" width="24" height="29.099999999999998" as="geometry"/>
                </mxCell>
                <mxCell id="GPaO3mNPhnGk44heOKdt-4" value="" style="shape=image;html=1;verticalAlign=top;verticalLabelPosition=bottom;labelBackgroundColor=#ffffff;imageAspect=0;aspect=fixed;image=https://cdn4.iconfinder.com/data/icons/logos-brands-5/24/elastic-128.png" parent="1" vertex="1">
                    <mxGeometry x="242" y="698" width="28" height="28" as="geometry"/>
                </mxCell>
                <mxCell id="GPaO3mNPhnGk44heOKdt-5" value="" style="rounded=0;whiteSpace=wrap;html=1;fillColor=none;" parent="1" vertex="1">
                    <mxGeometry x="240" y="698" width="120" height="60" as="geometry"/>
                </mxCell>
                <mxCell id="GPaO3mNPhnGk44heOKdt-6" value="" style="rounded=0;whiteSpace=wrap;html=1;fillColor=none;" parent="1" vertex="1">
                    <mxGeometry x="360" y="800" width="120" height="60" as="geometry"/>
                </mxCell>
                <mxCell id="GPaO3mNPhnGk44heOKdt-7" value="" style="rounded=0;whiteSpace=wrap;html=1;fillColor=none;" parent="1" vertex="1">
                    <mxGeometry x="480" y="700" width="120" height="60" as="geometry"/>
                </mxCell>
                <mxCell id="GPaO3mNPhnGk44heOKdt-8" value="" style="shape=image;html=1;verticalAlign=top;verticalLabelPosition=bottom;labelBackgroundColor=#ffffff;imageAspect=0;aspect=fixed;image=https://cdn4.iconfinder.com/data/icons/logos-brands-5/24/elastic-128.png" parent="1" vertex="1">
                    <mxGeometry x="480" y="702" width="28" height="28" as="geometry"/>
                </mxCell>
                <mxCell id="GPaO3mNPhnGk44heOKdt-9" value="" style="shape=image;html=1;verticalAlign=top;verticalLabelPosition=bottom;labelBackgroundColor=#ffffff;imageAspect=0;aspect=fixed;image=https://cdn4.iconfinder.com/data/icons/logos-brands-5/24/elastic-128.png" parent="1" vertex="1">
                    <mxGeometry x="360" y="800" width="28" height="28" as="geometry"/>
                </mxCell>
                <mxCell id="GPaO3mNPhnGk44heOKdt-10" value="" style="shape=image;html=1;verticalAlign=top;verticalLabelPosition=bottom;labelBackgroundColor=#ffffff;imageAspect=0;aspect=fixed;image=https://cdn4.iconfinder.com/data/icons/logos-brands-5/24/kibana-128.png;fillColor=none;" parent="1" vertex="1">
                    <mxGeometry x="332" y="730" width="28" height="28" as="geometry"/>
                </mxCell>
                <mxCell id="GPaO3mNPhnGk44heOKdt-11" value="" style="shape=image;html=1;verticalAlign=top;verticalLabelPosition=bottom;labelBackgroundColor=#ffffff;imageAspect=0;aspect=fixed;image=https://cdn4.iconfinder.com/data/icons/logos-brands-5/24/kibana-128.png;fillColor=none;" parent="1" vertex="1">
                    <mxGeometry x="452" y="832" width="28" height="28" as="geometry"/>
                </mxCell>
                <mxCell id="GPaO3mNPhnGk44heOKdt-12" value="" style="shape=image;html=1;verticalAlign=top;verticalLabelPosition=bottom;labelBackgroundColor=#ffffff;imageAspect=0;aspect=fixed;image=https://cdn4.iconfinder.com/data/icons/logos-brands-5/24/kibana-128.png;fillColor=none;" parent="1" vertex="1">
                    <mxGeometry x="572" y="732" width="28" height="28" as="geometry"/>
                </mxCell>
                <mxCell id="GPaO3mNPhnGk44heOKdt-13" value="" style="html=1;verticalLabelPosition=bottom;align=center;labelBackgroundColor=#ffffff;verticalAlign=top;strokeWidth=2;strokeColor=#0080F0;shadow=0;dashed=0;shape=mxgraph.ios7.icons.data;" parent="1" vertex="1">
                    <mxGeometry x="280" y="590.9" width="24" height="29.099999999999998" as="geometry"/>
                </mxCell>
                <mxCell id="GPaO3mNPhnGk44heOKdt-14" value="" style="html=1;verticalLabelPosition=bottom;align=center;labelBackgroundColor=#ffffff;verticalAlign=top;strokeWidth=2;strokeColor=#0080F0;shadow=0;dashed=0;shape=mxgraph.ios7.icons.data;" parent="1" vertex="1">
                    <mxGeometry x="560" y="590.9" width="24" height="29.099999999999998" as="geometry"/>
                </mxCell>
                <mxCell id="GPaO3mNPhnGk44heOKdt-15" value="" style="html=1;verticalLabelPosition=bottom;align=center;labelBackgroundColor=#ffffff;verticalAlign=top;strokeWidth=2;strokeColor=#0080F0;shadow=0;dashed=0;shape=mxgraph.ios7.icons.data;" parent="1" vertex="1">
                    <mxGeometry x="418" y="620" width="24" height="29.099999999999998" as="geometry"/>
                </mxCell>
                <mxCell id="GPaO3mNPhnGk44heOKdt-17" value="" style="endArrow=classic;startArrow=classic;html=1;" parent="1" edge="1">
                    <mxGeometry width="50" height="50" relative="1" as="geometry">
                        <mxPoint x="282" y="700" as="sourcePoint"/>
                        <mxPoint x="281.5" y="620" as="targetPoint"/>
                    </mxGeometry>
                </mxCell>
                <mxCell id="GPaO3mNPhnGk44heOKdt-18" value="" style="endArrow=classic;startArrow=classic;html=1;" parent="1" edge="1">
                    <mxGeometry width="50" height="50" relative="1" as="geometry">
                        <mxPoint x="418" y="800" as="sourcePoint"/>
                        <mxPoint x="418" y="649.1" as="targetPoint"/>
                    </mxGeometry>
                </mxCell>
                <mxCell id="GPaO3mNPhnGk44heOKdt-19" value="" style="endArrow=classic;startArrow=classic;html=1;" parent="1" edge="1">
                    <mxGeometry width="50" height="50" relative="1" as="geometry">
                        <mxPoint x="562" y="702" as="sourcePoint"/>
                        <mxPoint x="562" y="620" as="targetPoint"/>
                    </mxGeometry>
                </mxCell>
                <mxCell id="GPaO3mNPhnGk44heOKdt-21" value="" style="rounded=1;whiteSpace=wrap;html=1;fillColor=none;" parent="1" vertex="1">
                    <mxGeometry x="222" y="450" width="88" height="30" as="geometry"/>
                </mxCell>
                <mxCell id="GPaO3mNPhnGk44heOKdt-22" value="" style="rounded=1;whiteSpace=wrap;html=1;fillColor=none;" parent="1" vertex="1">
                    <mxGeometry x="381" y="450" width="88" height="30" as="geometry"/>
                </mxCell>
                <mxCell id="GPaO3mNPhnGk44heOKdt-23" value="" style="rounded=1;whiteSpace=wrap;html=1;fillColor=none;" parent="1" vertex="1">
                    <mxGeometry x="528" y="450" width="88" height="30" as="geometry"/>
                </mxCell>
                <mxCell id="GPaO3mNPhnGk44heOKdt-24" value="" style="endArrow=classic;startArrow=classic;html=1;" parent="1" edge="1">
                    <mxGeometry width="50" height="50" relative="1" as="geometry">
                        <mxPoint x="425" y="610" as="sourcePoint"/>
                        <mxPoint x="425" y="480" as="targetPoint"/>
                    </mxGeometry>
                </mxCell>
                <mxCell id="GPaO3mNPhnGk44heOKdt-25" value="" style="endArrow=classic;startArrow=classic;html=1;entryX=0.67;entryY=1.033;entryDx=0;entryDy=0;entryPerimeter=0;" parent="1" target="GPaO3mNPhnGk44heOKdt-21" edge="1">
                    <mxGeometry width="50" height="50" relative="1" as="geometry">
                        <mxPoint x="281" y="578" as="sourcePoint"/>
                        <mxPoint x="282" y="480" as="targetPoint"/>
                    </mxGeometry>
                </mxCell>
                <mxCell id="GPaO3mNPhnGk44heOKdt-26" value="" style="endArrow=classic;startArrow=classic;html=1;entryX=0.67;entryY=1.033;entryDx=0;entryDy=0;entryPerimeter=0;" parent="1" edge="1">
                    <mxGeometry width="50" height="50" relative="1" as="geometry">
                        <mxPoint x="561.54" y="577.01" as="sourcePoint"/>
                        <mxPoint x="561.5" y="480" as="targetPoint"/>
                    </mxGeometry>
                </mxCell>
                <mxCell id="GPaO3mNPhnGk44heOKdt-30" value="" style="curved=1;endArrow=classic;html=1;exitX=0.5;exitY=0;exitDx=0;exitDy=0;entryX=0.5;entryY=0;entryDx=0;entryDy=0;" parent="1" source="GPaO3mNPhnGk44heOKdt-23" target="GPaO3mNPhnGk44heOKdt-21" edge="1">
                    <mxGeometry width="50" height="50" relative="1" as="geometry">
                        <mxPoint x="563" y="400" as="sourcePoint"/>
                        <mxPoint x="266" y="420" as="targetPoint"/>
                        <Array as="points">
                            <mxPoint x="400" y="410"/>
                            <mxPoint x="330" y="410"/>
                        </Array>
                    </mxGeometry>
                </mxCell>
                <mxCell id="GPaO3mNPhnGk44heOKdt-31" value="" style="curved=1;endArrow=classic;html=1;entryX=0.648;entryY=-0.033;entryDx=0;entryDy=0;entryPerimeter=0;" parent="1" target="GPaO3mNPhnGk44heOKdt-22" edge="1">
                    <mxGeometry width="50" height="50" relative="1" as="geometry">
                        <mxPoint x="570" y="450" as="sourcePoint"/>
                        <mxPoint x="320" y="430" as="targetPoint"/>
                        <Array as="points">
                            <mxPoint x="520" y="440"/>
                            <mxPoint x="460" y="430"/>
                        </Array>
                    </mxGeometry>
                </mxCell>
                <mxCell id="GPaO3mNPhnGk44heOKdt-32" value="&lt;font style=&quot;font-size: 10px&quot;&gt;Book Service&lt;/font&gt;" style="text;html=1;align=center;verticalAlign=middle;resizable=0;points=[];autosize=1;" parent="1" vertex="1">
                    <mxGeometry x="230" y="455" width="70" height="20" as="geometry"/>
                </mxCell>
                <mxCell id="GPaO3mNPhnGk44heOKdt-33" value="&lt;font style=&quot;font-size: 10px&quot;&gt;Customer Service&lt;/font&gt;" style="text;html=1;align=center;verticalAlign=middle;resizable=0;points=[];autosize=1;" parent="1" vertex="1">
                    <mxGeometry x="380" y="455" width="90" height="20" as="geometry"/>
                </mxCell>
                <mxCell id="GPaO3mNPhnGk44heOKdt-38" value="&lt;font style=&quot;font-size: 10px&quot;&gt;Order Service&lt;/font&gt;" style="text;html=1;align=center;verticalAlign=middle;resizable=0;points=[];autosize=1;" parent="1" vertex="1">
                    <mxGeometry x="532" y="455" width="80" height="20" as="geometry"/>
                </mxCell>
                <mxCell id="GPaO3mNPhnGk44heOKdt-39" value="" style="verticalLabelPosition=bottom;html=1;verticalAlign=top;align=center;strokeColor=none;fillColor=#00BEF2;shape=mxgraph.azure.laptop;pointerEvents=1;" parent="1" vertex="1">
                    <mxGeometry x="395" y="30" width="50" height="30" as="geometry"/>
                </mxCell>
                <mxCell id="GPaO3mNPhnGk44heOKdt-40" value="&lt;font style=&quot;font-size: 10px&quot;&gt;Client&lt;/font&gt;" style="text;html=1;align=center;verticalAlign=middle;resizable=0;points=[];autosize=1;" parent="1" vertex="1">
                    <mxGeometry x="400" y="10" width="40" height="20" as="geometry"/>
                </mxCell>
                <mxCell id="GPaO3mNPhnGk44heOKdt-47" value="" style="rounded=1;whiteSpace=wrap;html=1;fillColor=none;" parent="1" vertex="1">
                    <mxGeometry x="210" y="354" width="700" height="190" as="geometry"/>
                </mxCell>
                <mxCell id="GPaO3mNPhnGk44heOKdt-48" value="" style="ellipse;whiteSpace=wrap;html=1;aspect=fixed;fillColor=none;" parent="1" vertex="1">
                    <mxGeometry x="677.5" y="137.5" width="85" height="85" as="geometry"/>
                </mxCell>
                <mxCell id="GPaO3mNPhnGk44heOKdt-49" value="" style="points=[[0.015,0.015,0],[0.985,0.015,0],[0.985,0.985,0],[0.015,0.985,0],[0.25,0,0],[0.5,0,0],[0.75,0,0],[1,0.25,0],[1,0.5,0],[1,0.75,0],[0.75,1,0],[0.5,1,0],[0.25,1,0],[0,0.75,0],[0,0.5,0],[0,0.25,0]];verticalLabelPosition=bottom;html=1;verticalAlign=top;aspect=fixed;align=center;pointerEvents=1;shape=mxgraph.cisco19.rect;prIcon=policy_configuration;fillColor=#FAFAFA;strokeColor=#005073;" parent="1" vertex="1">
                    <mxGeometry x="690" y="150" width="60" height="60" as="geometry"/>
                </mxCell>
                <mxCell id="GPaO3mNPhnGk44heOKdt-55" value="" style="endArrow=none;dashed=1;html=1;" parent="1" edge="1">
                    <mxGeometry width="50" height="50" relative="1" as="geometry">
                        <mxPoint x="440" y="189" as="sourcePoint"/>
                        <mxPoint x="671" y="189" as="targetPoint"/>
                    </mxGeometry>
                </mxCell>
                <mxCell id="GPaO3mNPhnGk44heOKdt-56" value="" style="endArrow=classic;html=1;" parent="1" edge="1">
                    <mxGeometry width="50" height="50" relative="1" as="geometry">
                        <mxPoint x="657.5" y="189" as="sourcePoint"/>
                        <mxPoint x="677.5" y="189" as="targetPoint"/>
                    </mxGeometry>
                </mxCell>
                <mxCell id="GPaO3mNPhnGk44heOKdt-59" value="" style="endArrow=none;dashed=1;html=1;exitX=0.844;exitY=1.044;exitDx=0;exitDy=0;exitPerimeter=0;" parent="1" edge="1" source="GPaO3mNPhnGk44heOKdt-39">
                    <mxGeometry width="50" height="50" relative="1" as="geometry">
                        <mxPoint x="437" y="159" as="sourcePoint"/>
                        <mxPoint x="437" y="190" as="targetPoint"/>
                    </mxGeometry>
                </mxCell>
                <mxCell id="GPaO3mNPhnGk44heOKdt-62" value="" style="endArrow=none;dashed=1;html=1;" parent="1" edge="1">
                    <mxGeometry width="50" height="50" relative="1" as="geometry">
                        <mxPoint x="430" y="200" as="sourcePoint"/>
                        <mxPoint x="570" y="200" as="targetPoint"/>
                    </mxGeometry>
                </mxCell>
                <mxCell id="GPaO3mNPhnGk44heOKdt-63" value="" style="endArrow=none;dashed=1;html=1;" parent="1" edge="1">
                    <mxGeometry width="50" height="50" relative="1" as="geometry">
                        <mxPoint x="429" y="80" as="sourcePoint"/>
                        <mxPoint x="429" y="200" as="targetPoint"/>
                    </mxGeometry>
                </mxCell>
                <mxCell id="GPaO3mNPhnGk44heOKdt-64" value="" style="endArrow=classic;html=1;entryX=0.703;entryY=1.003;entryDx=0;entryDy=0;entryPerimeter=0;" parent="1" edge="1">
                    <mxGeometry width="50" height="50" relative="1" as="geometry">
                        <mxPoint x="429" y="78" as="sourcePoint"/>
                        <mxPoint x="429.15000000000003" y="60.09" as="targetPoint"/>
                        <Array as="points"/>
                    </mxGeometry>
                </mxCell>
                <mxCell id="GPaO3mNPhnGk44heOKdt-65" value="" style="endArrow=none;dashed=1;html=1;" parent="1" edge="1">
                    <mxGeometry width="50" height="50" relative="1" as="geometry">
                        <mxPoint x="630" y="200" as="sourcePoint"/>
                        <mxPoint x="680" y="199.9999999999999" as="targetPoint"/>
                    </mxGeometry>
                </mxCell>
                <mxCell id="GPaO3mNPhnGk44heOKdt-66" value="&lt;font style=&quot;font-size: 9px&quot;&gt;200 - Ok&lt;br&gt;&amp;nbsp;/ 403 - Forbidden&lt;/font&gt;" style="text;html=1;align=center;verticalAlign=middle;resizable=0;points=[];autosize=1;" parent="1" vertex="1">
                    <mxGeometry x="550" y="182.5" width="90" height="40" as="geometry"/>
                </mxCell>
                <mxCell id="GPaO3mNPhnGk44heOKdt-67" value="&lt;font style=&quot;font-size: 8px&quot;&gt;gRPC / RabbitMQ&lt;/font&gt;" style="text;html=1;align=center;verticalAlign=middle;resizable=0;points=[];autosize=1;" parent="1" vertex="1">
                    <mxGeometry x="239" y="403" width="80" height="20" as="geometry"/>
                </mxCell>
                <mxCell id="GPaO3mNPhnGk44heOKdt-68" value="&lt;font style=&quot;font-size: 8px&quot;&gt;gRPC / RabbitMQ&lt;/font&gt;" style="text;html=1;align=center;verticalAlign=middle;resizable=0;points=[];autosize=1;" parent="1" vertex="1">
                    <mxGeometry x="504" y="412" width="80" height="20" as="geometry"/>
                </mxCell>
                <mxCell id="GPaO3mNPhnGk44heOKdt-70" value="" style="endArrow=classic;html=1;entryX=0.3;entryY=1;entryDx=0;entryDy=0;entryPerimeter=0;" parent="1" edge="1" target="GPaO3mNPhnGk44heOKdt-39">
                    <mxGeometry width="50" height="50" relative="1" as="geometry">
                        <mxPoint x="410" y="270" as="sourcePoint"/>
                        <mxPoint x="410" y="158.99" as="targetPoint"/>
                    </mxGeometry>
                </mxCell>
                <mxCell id="GPaO3mNPhnGk44heOKdt-71" value="" style="endArrow=classic;html=1;entryX=0.25;entryY=0;entryDx=0;entryDy=0;" parent="1" edge="1">
                    <mxGeometry width="50" height="50" relative="1" as="geometry">
                        <mxPoint x="241" y="270" as="sourcePoint"/>
                        <mxPoint x="241" y="450" as="targetPoint"/>
                    </mxGeometry>
                </mxCell>
                <mxCell id="GPaO3mNPhnGk44heOKdt-72" value="" style="endArrow=none;html=1;" parent="1" edge="1">
                    <mxGeometry width="50" height="50" relative="1" as="geometry">
                        <mxPoint x="240" y="269" as="sourcePoint"/>
                        <mxPoint x="410" y="269" as="targetPoint"/>
                    </mxGeometry>
                </mxCell>
                <mxCell id="GPaO3mNPhnGk44heOKdt-73" value="" style="endArrow=classic;startArrow=classic;html=1;exitX=0.5;exitY=1;exitDx=0;exitDy=0;exitPerimeter=0;entryX=0.432;entryY=-0.067;entryDx=0;entryDy=0;entryPerimeter=0;" parent="1" source="GPaO3mNPhnGk44heOKdt-39" target="GPaO3mNPhnGk44heOKdt-22" edge="1">
                    <mxGeometry width="50" height="50" relative="1" as="geometry">
                        <mxPoint x="400" y="500" as="sourcePoint"/>
                        <mxPoint x="420" y="440" as="targetPoint"/>
                    </mxGeometry>
                </mxCell>
                <mxCell id="GPaO3mNPhnGk44heOKdt-75" value="" style="rounded=1;whiteSpace=wrap;html=1;fillColor=none;" parent="1" vertex="1">
                    <mxGeometry x="102" y="560" width="530" height="340" as="geometry"/>
                </mxCell>
                <mxCell id="GPaO3mNPhnGk44heOKdt-76" value="&lt;font style=&quot;font-size: 10px&quot;&gt;Open Policy Agent&lt;/font&gt;" style="text;html=1;align=center;verticalAlign=middle;resizable=0;points=[];autosize=1;" parent="1" vertex="1">
                    <mxGeometry x="770" y="117.5" width="100" height="20" as="geometry"/>
                </mxCell>
                <mxCell id="GPaO3mNPhnGk44heOKdt-77" value="" style="rounded=1;whiteSpace=wrap;html=1;fillColor=none;" parent="1" vertex="1">
                    <mxGeometry x="643" y="118.5" width="270" height="190" as="geometry"/>
                </mxCell>
                <mxCell id="GPaO3mNPhnGk44heOKdt-78" value="&lt;font style=&quot;font-size: 10px&quot;&gt;API&lt;br&gt;/ customer&lt;/font&gt;" style="text;html=1;align=center;verticalAlign=middle;resizable=0;points=[];autosize=1;" parent="1" vertex="1">
                    <mxGeometry x="418" y="230" width="60" height="30" as="geometry"/>
                </mxCell>
                <mxCell id="GPaO3mNPhnGk44heOKdt-79" value="&lt;font style=&quot;font-size: 10px&quot;&gt;API&lt;br&gt;/ book&lt;/font&gt;" style="text;html=1;align=center;verticalAlign=middle;resizable=0;points=[];autosize=1;" parent="1" vertex="1">
                    <mxGeometry x="369" y="238" width="40" height="30" as="geometry"/>
                </mxCell>
                <mxCell id="GPaO3mNPhnGk44heOKdt-80" value="" style="endArrow=classic;html=1;entryX=0.75;entryY=0;entryDx=0;entryDy=0;" parent="1" edge="1">
                    <mxGeometry width="50" height="50" relative="1" as="geometry">
                        <mxPoint x="597" y="230" as="sourcePoint"/>
                        <mxPoint x="597" y="450" as="targetPoint"/>
                    </mxGeometry>
                </mxCell>
                <mxCell id="GPaO3mNPhnGk44heOKdt-81" value="" style="endArrow=none;html=1;" parent="1" edge="1">
                    <mxGeometry width="50" height="50" relative="1" as="geometry">
                        <mxPoint x="420" y="229" as="sourcePoint"/>
                        <mxPoint x="598" y="229" as="targetPoint"/>
                    </mxGeometry>
                </mxCell>
                <mxCell id="GPaO3mNPhnGk44heOKdt-82" value="API&lt;br&gt;/ order" style="text;html=1;align=center;verticalAlign=middle;resizable=0;points=[];autosize=1;" parent="1" vertex="1">
                    <mxGeometry x="549" y="300" width="50" height="30" as="geometry"/>
                </mxCell>
                <mxCell id="GPaO3mNPhnGk44heOKdt-83" value="" style="aspect=fixed;html=1;points=[];align=center;image;fontSize=12;image=img/lib/mscae/Policy.svg;fillColor=none;" parent="1" vertex="1">
                    <mxGeometry x="835" y="221" width="44.99" height="50" as="geometry"/>
                </mxCell>
                <mxCell id="GPaO3mNPhnGk44heOKdt-85" value="" style="endArrow=classic;html=1;entryX=-0.013;entryY=0.285;entryDx=0;entryDy=0;entryPerimeter=0;" parent="1" edge="1">
                    <mxGeometry width="50" height="50" relative="1" as="geometry">
                        <mxPoint x="806" y="240" as="sourcePoint"/>
                        <mxPoint x="832.4151299999999" y="240.25" as="targetPoint"/>
                    </mxGeometry>
                </mxCell>
                <mxCell id="GPaO3mNPhnGk44heOKdt-86" value="" style="endArrow=none;dashed=1;html=1;entryX=-0.006;entryY=0.614;entryDx=0;entryDy=0;entryPerimeter=0;" parent="1" edge="1">
                    <mxGeometry width="50" height="50" relative="1" as="geometry">
                        <mxPoint x="734" y="240" as="sourcePoint"/>
                        <mxPoint x="755.6400000000001" y="239.27999999999997" as="targetPoint"/>
                        <Array as="points"/>
                    </mxGeometry>
                </mxCell>
                <mxCell id="GPaO3mNPhnGk44heOKdt-87" value="" style="endArrow=none;dashed=1;html=1;" parent="1" edge="1">
                    <mxGeometry width="50" height="50" relative="1" as="geometry">
                        <mxPoint x="730" y="238" as="sourcePoint"/>
                        <mxPoint x="730" y="220.5" as="targetPoint"/>
                    </mxGeometry>
                </mxCell>
                <mxCell id="GPaO3mNPhnGk44heOKdt-88" value="" style="endArrow=none;dashed=1;html=1;exitX=-0.044;exitY=0.553;exitDx=0;exitDy=0;exitPerimeter=0;" parent="1" edge="1">
                    <mxGeometry width="50" height="50" relative="1" as="geometry">
                        <mxPoint x="832.0204399999998" y="253.64999999999986" as="sourcePoint"/>
                        <mxPoint x="730" y="254" as="targetPoint"/>
                    </mxGeometry>
                </mxCell>
                <mxCell id="GPaO3mNPhnGk44heOKdt-89" value="" style="endArrow=classic;html=1;" parent="1" edge="1">
                    <mxGeometry width="50" height="50" relative="1" as="geometry">
                        <mxPoint x="720" y="232" as="sourcePoint"/>
                        <mxPoint x="720" y="222" as="targetPoint"/>
                    </mxGeometry>
                </mxCell>
                <mxCell id="GPaO3mNPhnGk44heOKdt-91" value="&lt;font style=&quot;font-size: 10px&quot;&gt;Service Mesh&lt;br&gt;(Linkerd)&lt;br&gt;&lt;/font&gt;" style="text;html=1;align=center;verticalAlign=middle;resizable=0;points=[];autosize=1;" parent="1" vertex="1">
                    <mxGeometry x="820" y="360" width="80" height="30" as="geometry"/>
                </mxCell>
                <mxCell id="GPaO3mNPhnGk44heOKdt-92" value="&lt;font style=&quot;font-size: 10px&quot;&gt;Databases&lt;/font&gt;" style="text;html=1;align=center;verticalAlign=middle;resizable=0;points=[];autosize=1;" parent="1" vertex="1">
                    <mxGeometry x="120" y="570.9" width="60" height="20" as="geometry"/>
                </mxCell>
                <mxCell id="GPaO3mNPhnGk44heOKdt-93" value="&lt;font style=&quot;font-size: 10px&quot;&gt;Elastic seach&lt;/font&gt;" style="text;html=1;align=center;verticalAlign=middle;resizable=0;points=[];autosize=1;" parent="1" vertex="1">
                    <mxGeometry x="257" y="770" width="70" height="20" as="geometry"/>
                </mxCell>
                <mxCell id="GPaO3mNPhnGk44heOKdt-94" value="&lt;font style=&quot;font-size: 10px&quot;&gt;Elastic seach&lt;/font&gt;" style="text;html=1;align=center;verticalAlign=middle;resizable=0;points=[];autosize=1;" parent="1" vertex="1">
                    <mxGeometry x="505" y="770" width="70" height="20" as="geometry"/>
                </mxCell>
                <mxCell id="GPaO3mNPhnGk44heOKdt-95" value="&lt;font style=&quot;font-size: 10px&quot;&gt;Elastic seach&lt;/font&gt;" style="text;html=1;align=center;verticalAlign=middle;resizable=0;points=[];autosize=1;" parent="1" vertex="1">
                    <mxGeometry x="385" y="870" width="70" height="20" as="geometry"/>
                </mxCell>
                <mxCell id="GPaO3mNPhnGk44heOKdt-96" value="&lt;font style=&quot;font-size: 10px&quot;&gt;Kibana&lt;/font&gt;" style="text;html=1;align=center;verticalAlign=middle;resizable=0;points=[];autosize=1;" parent="1" vertex="1">
                    <mxGeometry x="286" y="738" width="50" height="20" as="geometry"/>
                </mxCell>
                <mxCell id="GPaO3mNPhnGk44heOKdt-97" value="&lt;font style=&quot;font-size: 10px&quot;&gt;Kibana&lt;/font&gt;" style="text;html=1;align=center;verticalAlign=middle;resizable=0;points=[];autosize=1;" parent="1" vertex="1">
                    <mxGeometry x="528" y="740" width="50" height="20" as="geometry"/>
                </mxCell>
                <mxCell id="GPaO3mNPhnGk44heOKdt-98" value="&lt;font style=&quot;font-size: 10px&quot;&gt;Kibana&lt;/font&gt;" style="text;html=1;align=center;verticalAlign=middle;resizable=0;points=[];autosize=1;" parent="1" vertex="1">
                    <mxGeometry x="408" y="841" width="50" height="20" as="geometry"/>
                </mxCell>
                <mxCell id="GPaO3mNPhnGk44heOKdt-99" value="&lt;font style=&quot;font-size: 8px&quot;&gt;allow=true /&lt;br&gt;allow=false&lt;/font&gt;" style="text;html=1;align=center;verticalAlign=middle;resizable=0;points=[];autosize=1;" parent="1" vertex="1">
                    <mxGeometry x="673" y="230" width="60" height="40" as="geometry"/>
                </mxCell>
                <mxCell id="GPaO3mNPhnGk44heOKdt-100" value="&lt;span style=&quot;font-size: 9px&quot;&gt;/ authorize&lt;/span&gt;" style="text;html=1;align=center;verticalAlign=middle;resizable=0;points=[];autosize=1;" parent="1" vertex="1">
                    <mxGeometry x="752" y="227" width="60" height="20" as="geometry"/>
                </mxCell>
            </root>
        </mxGraphModel>
    </diagram>
</mxfile>